<?xml version="1.0" encoding="UTF-8"?>
<svg xmlns="http://www.w3.org/2000/svg" width="20" height="20" viewBox="0 0 20 20" fill="none">
  <path d="M16.8159 7.29997L13.5159 3.99997C13.3312 3.81156 13.0796 3.70373 12.8159 3.69997H11.6159C11.4771 3.69903 11.3396 3.727 11.2122 3.78209C11.0848 3.83719 10.9702 3.9182 10.8759 4.01997L10.8359 4.05997C10.1359 4.75997 8.97586 4.75997 8.27586 4.05997L8.22586 4.01997C8.13262 3.91944 8.0197 3.83915 7.89412 3.7841C7.76854 3.72905 7.63297 3.70042 7.49586 3.69997H6.30586C6.17187 3.69919 6.03909 3.72534 5.9154 3.77688C5.79172 3.82842 5.67965 3.90428 5.58586 3.99997L2.28586 7.29997C2.10263 7.4869 2 7.73822 2 7.99997C2 8.26173 2.10263 8.51305 2.28586 8.69997L3.94586 10.36C4.12439 10.5384 4.36379 10.6427 4.61604 10.652C4.86828 10.6613 5.11471 10.5748 5.30586 10.41V15.7C5.30586 15.9652 5.41121 16.2195 5.59875 16.4071C5.78629 16.5946 6.04064 16.7 6.30586 16.7H12.8059C13.0711 16.7 13.3254 16.5946 13.513 16.4071C13.7005 16.2195 13.8059 15.9652 13.8059 15.7V10.42C13.9976 10.5806 14.2426 10.6636 14.4925 10.6525C14.7424 10.6414 14.9791 10.537 15.1559 10.36L16.8159 8.70997C16.9096 8.61701 16.984 8.50641 17.0347 8.38455C17.0855 8.26269 17.1117 8.13199 17.1117 7.99997C17.1117 7.86796 17.0855 7.73726 17.0347 7.6154C16.984 7.49354 16.9096 7.38294 16.8159 7.28997V7.29997ZM14.4459 9.64997L12.8059 7.99997V15.69H6.30586V7.99997L4.65586 9.65997L2.99586 7.99997L6.29586 4.69997L6.30586 4.70997V4.69997H7.49586L7.56586 4.76997C7.8269 5.03182 8.13705 5.23957 8.47854 5.38132C8.82002 5.52307 9.18612 5.59604 9.55586 5.59604C9.92559 5.59604 10.2917 5.52307 10.6332 5.38132C10.9747 5.23957 11.2848 5.03182 11.5459 4.76997L11.6059 4.69997H12.8059L16.1059 7.99997L14.4459 9.65997V9.64997Z" fill="currentColor"/>
</svg> 