<svg width="22" height="22" viewBox="0 0 22 22" fill="none" xmlns="http://www.w3.org/2000/svg">
<path d="M21.9012 4.38259C21.8616 4.33498 21.8119 4.29666 21.7558 4.27034C21.6997 4.24402 21.6385 4.23036 21.5765 4.2303H4.16089L3.45436 0.346885C3.43656 0.249599 3.38523 0.161625 3.30929 0.0982525C3.23335 0.0348802 3.13761 0.000115392 3.03869 0H0.423069C0.310864 0 0.203255 0.0445692 0.123914 0.123903C0.0445733 0.203236 0 0.310836 0 0.42303C0 0.535225 0.0445733 0.642824 0.123914 0.722158C0.203255 0.801491 0.310864 0.84606 0.423069 0.84606H2.68543L3.39302 4.73794L5.44596 16.0307C5.5406 16.5468 5.8237 17.0093 6.24027 17.3284C5.80387 17.6096 5.46421 18.0179 5.26709 18.4982C5.06998 18.9785 5.0249 19.5076 5.13792 20.0143C5.25094 20.521 5.51663 20.9809 5.89917 21.3319C6.2817 21.6829 6.76268 21.9082 7.27725 21.9774C7.79182 22.0465 8.31522 21.9563 8.77689 21.7187C9.23855 21.4812 9.61627 21.1078 9.85911 20.649C10.1019 20.1901 10.1982 19.6678 10.135 19.1525C10.0717 18.6373 9.85194 18.1538 9.50531 17.7673H15.8788C15.4913 18.2005 15.2642 18.7536 15.2355 19.3341C15.2069 19.9147 15.3783 20.4875 15.7213 20.9568C16.0642 21.4261 16.5578 21.7635 17.1197 21.9126C17.6815 22.0617 18.2775 22.0135 18.8081 21.776C19.3386 21.5385 19.7716 21.1261 20.0346 20.6078C20.2976 20.0895 20.3747 19.4965 20.2531 18.9282C20.1314 18.3598 19.8183 17.8504 19.3662 17.4851C18.914 17.1198 18.3502 16.9208 17.7689 16.9212H7.52746C7.23039 16.9211 6.94279 16.8167 6.71474 16.6264C6.48668 16.436 6.33263 16.1717 6.27941 15.8795L5.85634 13.537H18.6256C19.121 13.537 19.6007 13.3633 19.9811 13.0459C20.3615 12.7286 20.6184 12.2878 20.7071 11.8004L21.9933 4.72948C22.0043 4.66845 22.0018 4.60574 21.9859 4.54579C21.97 4.48585 21.9411 4.43013 21.9012 4.38259ZM9.30752 19.4594C9.30752 19.7941 9.20827 20.1212 9.02232 20.3995C8.83637 20.6777 8.57208 20.8946 8.26285 21.0227C7.95363 21.1508 7.61337 21.1843 7.2851 21.119C6.95683 21.0537 6.6553 20.8925 6.41863 20.6559C6.18196 20.4193 6.02078 20.1177 5.95549 19.7895C5.89019 19.4613 5.9237 19.121 6.05179 18.8118C6.17987 18.5026 6.39677 18.2384 6.67507 18.0524C6.95336 17.8665 7.28055 17.7673 7.61525 17.7673C8.06407 17.7673 8.4945 17.9455 8.81187 18.2629C9.12923 18.5802 9.30752 19.0106 9.30752 19.4594ZM19.4612 19.4594C19.4612 19.7941 19.3619 20.1212 19.176 20.3995C18.99 20.6777 18.7257 20.8946 18.4165 21.0227C18.1073 21.1508 17.767 21.1843 17.4388 21.119C17.1105 21.0537 16.809 20.8925 16.5723 20.6559C16.3356 20.4193 16.1744 20.1177 16.1091 19.7895C16.0439 19.4613 16.0774 19.121 16.2054 18.8118C16.3335 18.5026 16.5504 18.2384 16.8287 18.0524C17.107 17.8665 17.4342 17.7673 17.7689 17.7673C18.2177 17.7673 18.6482 17.9455 18.9655 18.2629C19.2829 18.5802 19.4612 19.0106 19.4612 19.4594ZM19.8747 11.6492C19.8215 11.9416 19.6673 12.206 19.439 12.3964C19.2107 12.5868 18.9229 12.691 18.6256 12.6909H5.69874L4.31425 5.07636H21.0699L19.8747 11.6492Z" fill="black"/>
</svg>
